<svg width="128" height="128" viewBox="0 0 128 128" fill="none" xmlns="http://www.w3.org/2000/svg">
  <defs>
    <linearGradient id="bg" x1="16" y1="14" x2="112" y2="116" gradientUnits="userSpaceOnUse">
      <stop stop-color="#07111F"/>
      <stop offset="0.52" stop-color="#0B1935"/>
      <stop offset="1" stop-color="#123A57"/>
    </linearGradient>
    <linearGradient id="core" x1="34" y1="24" x2="98" y2="99" gradientUnits="userSpaceOnUse">
      <stop stop-color="#F3FEFF"/>
      <stop offset="0.44" stop-color="#97FBFF"/>
      <stop offset="1" stop-color="#20DCF6"/>
    </linearGradient>
    <linearGradient id="edge" x1="24" y1="16" x2="100" y2="112" gradientUnits="userSpaceOnUse">
      <stop stop-color="#8AF7FF" stop-opacity="0.45"/>
      <stop offset="1" stop-color="#8AF7FF" stop-opacity="0.08"/>
    </linearGradient>
  </defs>
  <rect x="10" y="10" width="108" height="108" rx="30" fill="#030711"/>
  <rect x="14" y="14" width="100" height="100" rx="26" fill="url(#bg)"/>
  <rect x="14" y="14" width="100" height="100" rx="26" stroke="url(#edge)" stroke-width="1.4"/>
  <path d="M29 92C41.2 73.9 58.1 61.6 83.2 54.6" stroke="#8BF3FF" stroke-opacity="0.22" stroke-width="4.8" stroke-linecap="round"/>
  <path d="M36 35.5V85C36 91.3 41.2 96.5 47.5 96.5C53.8 96.5 59 91.3 59 85V52L86.7 45V70.8C86.7 76.9 91.6 81.8 97.7 81.8C103.8 81.8 108.7 76.9 108.7 70.8V29.5C108.7 26.2 105.5 23.8 102.3 24.6L49.7 37.8C41.8 39.8 36 46.8 36 54.9V35.5Z" fill="url(#core)"/>
  <path d="M65 58.7L95.1 51.1" stroke="#041624" stroke-opacity="0.34" stroke-width="6.8" stroke-linecap="round"/>
  <circle cx="47.5" cy="85" r="10.2" fill="#F1FEFF"/>
  <circle cx="97.7" cy="70.8" r="9.2" fill="#E3FCFF"/>
  <path d="M79 23.5C86.9 24 94.1 27.5 99.6 33.2" stroke="#A6FAFF" stroke-opacity="0.5" stroke-width="5" stroke-linecap="round"/>
</svg>
