<svg width="128" height="128" viewBox="0 0 128 128" fill="none" xmlns="http://www.w3.org/2000/svg">
  <defs>
    <linearGradient id="bg" x1="20" y1="18" x2="108" y2="112" gradientUnits="userSpaceOnUse">
      <stop stop-color="#8BF4D3"/>
      <stop offset="0.48" stop-color="#1ED6A2"/>
      <stop offset="1" stop-color="#0A8D73"/>
    </linearGradient>
    <linearGradient id="note" x1="44" y1="28" x2="92" y2="92" gradientUnits="userSpaceOnUse">
      <stop stop-color="#F8FFFD"/>
      <stop offset="1" stop-color="#D9FFF4"/>
    </linearGradient>
  </defs>
  <rect x="10" y="10" width="108" height="108" rx="32" fill="#091312"/>
  <rect x="14" y="14" width="100" height="100" rx="28" fill="url(#bg)"/>
  <path d="M34 87C42.4 69.8 54 57.4 69 49.8C76.8 45.8 85 43 93.6 41.4" stroke="#083A30" stroke-width="7" stroke-linecap="round" stroke-opacity="0.24"/>
  <path d="M49 37.5V79.6C49 83.8 52.3 87.1 56.5 87.1C60.7 87.1 64 83.8 64 79.6V50.8L82.5 46.5V69.5C82.5 73.7 85.8 77 90 77C94.1 77 97.5 73.7 97.5 69.5V30.8C97.5 28.6 95.4 27.1 93.3 27.6L56 36.2C52 37.1 49 40.8 49 45V37.5Z" fill="url(#note)"/>
  <circle cx="56.5" cy="79.6" r="8.6" fill="#FCFFFE"/>
  <circle cx="90" cy="69.5" r="8.2" fill="#FCFFFE"/>
  <path d="M26 98C35.4 86.9 48.8 79.5 65.8 75.7" stroke="#F5FFFC" stroke-width="5" stroke-linecap="round" stroke-opacity="0.34"/>
</svg>
